<svg xmlns="http://www.w3.org/2000/svg" width="192" height="192" viewBox="0 0 512 512" role="img" aria-label="Biblioteca de Enlaces">
  <defs>
    <linearGradient id="background" x1="64" y1="48" x2="448" y2="464" gradientUnits="userSpaceOnUse"><stop stop-color="#c026d3"/><stop offset="0.45" stop-color="#7c3aed"/><stop offset="1" stop-color="#172554"/></linearGradient>
    <linearGradient id="cardBlue" x1="152" y1="142" x2="378" y2="264" gradientUnits="userSpaceOnUse"><stop stop-color="#60a5fa"/><stop offset="1" stop-color="#2563eb"/></linearGradient>
    <linearGradient id="link" x1="278" y1="300" x2="398" y2="420" gradientUnits="userSpaceOnUse"><stop stop-color="#c026d3"/><stop offset="1" stop-color="#6d28d9"/></linearGradient>
  </defs>
  <rect width="512" height="512" rx="112" fill="#09090b"/><rect x="24" y="24" width="464" height="464" rx="96" fill="url(#background)"/>
  <rect x="154" y="100" width="230" height="116" rx="26" fill="#a855f7"/><rect x="124" y="132" width="276" height="124" rx="28" fill="url(#cardBlue)"/>
  <circle cx="174" cy="184" r="22" fill="none" stroke="#fff" stroke-width="9"/><path d="M152 184h44M174 162c9 10 9 34 0 44M174 162c-9 10-9 34 0 44" fill="none" stroke="#fff" stroke-width="6" stroke-linecap="round"/><path d="M224 174h118M224 198h82" stroke="#dbeafe" stroke-width="13" stroke-linecap="round" opacity="0.78"/>
  <rect x="102" y="194" width="308" height="142" rx="30" fill="#fff"/><path d="M142 194h54v76l-27-18-27 18z" fill="#7c3aed"/><path d="M224 232h126M224 264h96" stroke="#c4b5fd" stroke-width="14" stroke-linecap="round"/>
  <path d="M84 300c0-27 22-49 49-49h246c27 0 49 22 49 49v122c0 31-25 56-56 56H140c-31 0-56-25-56-56z" fill="#f8fafc"/><path d="M84 307l172 103 172-103v115c0 31-25 56-56 56H140c-31 0-56-25-56-56z" fill="#ede9fe"/>
  <g transform="rotate(-8 335 370)" fill="none" stroke="url(#link)" stroke-width="28" stroke-linecap="round"><path d="M296 390l-18 18c-19 19-50 19-69 0s-19-50 0-69l42-42c19-19 50-19 69 0 8 8 13 18 14 29"/><path d="M314 350l18-18c19-19 50-19 69 0s19 50 0 69l-42 42c-19 19-50 19-69 0-8-8-13-18-14-29"/></g>
</svg>
